M48
; DRILL file {KiCad 5.99.0-unknown-4594d88417~130~ubuntu20.04.1} date Sun Jul  4 17:02:06 2021
; FORMAT={-:-/ absolute / metric / decimal}
; #@! TF.CreationDate,2021-07-04T17:02:06+02:00
; #@! TF.GenerationSoftware,Kicad,Pcbnew,5.99.0-unknown-4594d88417~130~ubuntu20.04.1
; #@! TF.FileFunction,Plated,1,2,PTH
FMAT,2
METRIC
; #@! TA.AperFunction,Plated,PTH,ViaDrill
T1C0.400
; #@! TA.AperFunction,Plated,PTH,ComponentDrill
T2C0.762
; #@! TA.AperFunction,Plated,PTH,ComponentDrill
T3C0.800
; #@! TA.AperFunction,Plated,PTH,ComponentDrill
T4C1.000
; #@! TA.AperFunction,Plated,PTH,ComponentDrill
T5C1.500
; #@! TA.AperFunction,Plated,PTH,ViaDrill
T6C3.200
%
G90
G05
T1
X42.1Y-54.4
X42.7Y-67.9
X44.7Y-60.7
X45.6Y-65.2
X46.2Y-56.2
X46.2Y-57.5
X46.2Y-58.8
X46.2Y-60.1
X49.5Y-54.8
X49.85Y-53.5
X50.15Y-43.9
X55.2Y-63.4
X56.6Y-59.6
X58.3Y-68.6
X60.9Y-55.15
X63.3Y-55.55
X64.75Y-55.6
X65.6Y-65.1
X65.6Y-66.5
X66.9Y-55.7
X67.6Y-43.9
X69.3Y-72.65
T2
X45.0Y-103.0
X55.0Y-103.0
T3
X31.7Y-86.35
X32.3Y-90.08
X32.3Y-97.7
X33.1Y-78.85
T4
X31.7Y-48.9
X34.24Y-48.9
X36.78Y-48.9
X39.32Y-48.9
X41.86Y-48.9
X44.4Y-48.9
X47.325Y-48.9
X49.865Y-48.9
X52.405Y-48.9
X54.945Y-48.9
X57.485Y-48.9
X60.4Y-48.9
X62.94Y-48.9
X65.48Y-48.9
X68.02Y-48.9
T5
X36.95Y-95.9
X37.05Y-81.4
X37.05Y-86.4
X43.0Y-96.0
X66.45Y-76.2
X66.45Y-91.8
T6
X40.0Y-105.0
X60.0Y-105.0
T0
M30
