G04 #@! TF.GenerationSoftware,KiCad,Pcbnew,5.99.0-unknown-4594d88417~130~ubuntu20.04.1*
G04 #@! TF.CreationDate,2021-07-04T17:01:16+02:00*
G04 #@! TF.ProjectId,SLS,534c532e-6b69-4636-9164-5f7063625858,rev?*
G04 #@! TF.SameCoordinates,Original*
G04 #@! TF.FileFunction,Legend,Top*
G04 #@! TF.FilePolarity,Positive*
%FSLAX46Y46*%
G04 Gerber Fmt 4.6, Leading zero omitted, Abs format (unit mm)*
G04 Created by KiCad (PCBNEW 5.99.0-unknown-4594d88417~130~ubuntu20.04.1) date 2021-07-04 17:01:16*
%MOMM*%
%LPD*%
G01*
G04 APERTURE LIST*
G04 Aperture macros list*
%AMRoundRect*
0 Rectangle with rounded corners*
0 $1 Rounding radius*
0 $2 $3 $4 $5 $6 $7 $8 $9 X,Y pos of 4 corners*
0 Add a 4 corners polygon primitive as box body*
4,1,4,$2,$3,$4,$5,$6,$7,$8,$9,$2,$3,0*
0 Add four circle primitives for the rounded corners*
1,1,$1+$1,$2,$3*
1,1,$1+$1,$4,$5*
1,1,$1+$1,$6,$7*
1,1,$1+$1,$8,$9*
0 Add four rect primitives between the rounded corners*
20,1,$1+$1,$2,$3,$4,$5,0*
20,1,$1+$1,$4,$5,$6,$7,0*
20,1,$1+$1,$6,$7,$8,$9,0*
20,1,$1+$1,$8,$9,$2,$3,0*%
G04 Aperture macros list end*
G04 #@! TA.AperFunction,Profile*
%ADD10C,0.050000*%
G04 #@! TD*
%ADD11C,0.150000*%
%ADD12C,0.300000*%
%ADD13C,0.120000*%
%ADD14C,0.200000*%
%ADD15RoundRect,0.250000X-0.650000X0.325000X-0.650000X-0.325000X0.650000X-0.325000X0.650000X0.325000X0*%
%ADD16R,1.500000X1.500000*%
%ADD17R,1.500000X1.000000*%
%ADD18C,3.000000*%
%ADD19RoundRect,0.250000X-0.325000X-0.650000X0.325000X-0.650000X0.325000X0.650000X-0.325000X0.650000X0*%
%ADD20RoundRect,0.250000X-0.312500X-0.625000X0.312500X-0.625000X0.312500X0.625000X-0.312500X0.625000X0*%
%ADD21C,1.800000*%
%ADD22C,1.600000*%
%ADD23O,1.600000X1.600000*%
%ADD24C,1.524000*%
%ADD25RoundRect,0.250000X0.312500X0.625000X-0.312500X0.625000X-0.312500X-0.625000X0.312500X-0.625000X0*%
%ADD26R,1.000000X1.500000*%
%ADD27RoundRect,0.250000X0.325000X0.650000X-0.325000X0.650000X-0.325000X-0.650000X0.325000X-0.650000X0*%
%ADD28R,1.700000X1.700000*%
%ADD29O,1.700000X1.700000*%
G04 APERTURE END LIST*
D10*
X47000000Y-76000000D02*
X33000000Y-76000000D01*
X30000000Y-105000000D02*
X30000000Y-40000000D01*
X48000000Y-101000000D02*
X34000000Y-101000000D01*
X70000000Y-105000000D02*
X60000000Y-110000000D01*
X40000000Y-110000000D02*
X30000000Y-105000000D01*
X48000000Y-75000000D02*
X48000000Y-101000000D01*
X33000000Y-76000000D02*
X33000000Y-75000000D01*
X30000000Y-40000000D02*
X70000000Y-40000000D01*
X33000000Y-75000000D02*
X48000000Y-75000000D01*
X34000000Y-101000000D02*
X34000000Y-100000000D01*
X70000000Y-40000000D02*
X70000000Y-105000000D01*
X60000000Y-110000000D02*
X40000000Y-110000000D01*
X34000000Y-100000000D02*
X47000000Y-100000000D01*
X47000000Y-100000000D02*
X47000000Y-76000000D01*
D11*
X41066666Y-50716666D02*
X41466666Y-50716666D01*
X41266666Y-51416666D02*
X41266666Y-50716666D01*
X41700000Y-51416666D02*
X41700000Y-50716666D01*
X41933333Y-51216666D01*
X42166666Y-50716666D01*
X42166666Y-51416666D01*
X42466666Y-51383333D02*
X42566666Y-51416666D01*
X42733333Y-51416666D01*
X42800000Y-51383333D01*
X42833333Y-51350000D01*
X42866666Y-51283333D01*
X42866666Y-51216666D01*
X42833333Y-51150000D01*
X42800000Y-51116666D01*
X42733333Y-51083333D01*
X42600000Y-51050000D01*
X42533333Y-51016666D01*
X42500000Y-50983333D01*
X42466666Y-50916666D01*
X42466666Y-50850000D01*
X42500000Y-50783333D01*
X42533333Y-50750000D01*
X42600000Y-50716666D01*
X42766666Y-50716666D01*
X42866666Y-50750000D01*
X61433333Y-57528571D02*
X61576190Y-57576190D01*
X61623809Y-57623809D01*
X61671428Y-57719047D01*
X61671428Y-57861904D01*
X61623809Y-57957142D01*
X61576190Y-58004761D01*
X61480952Y-58052380D01*
X61100000Y-58052380D01*
X61100000Y-57052380D01*
X61433333Y-57052380D01*
X61528571Y-57100000D01*
X61576190Y-57147619D01*
X61623809Y-57242857D01*
X61623809Y-57338095D01*
X61576190Y-57433333D01*
X61528571Y-57480952D01*
X61433333Y-57528571D01*
X61100000Y-57528571D01*
X62290476Y-57052380D02*
X62480952Y-57052380D01*
X62576190Y-57100000D01*
X62671428Y-57195238D01*
X62719047Y-57385714D01*
X62719047Y-57719047D01*
X62671428Y-57909523D01*
X62576190Y-58004761D01*
X62480952Y-58052380D01*
X62290476Y-58052380D01*
X62195238Y-58004761D01*
X62100000Y-57909523D01*
X62052380Y-57719047D01*
X62052380Y-57385714D01*
X62100000Y-57195238D01*
X62195238Y-57100000D01*
X62290476Y-57052380D01*
X63338095Y-57052380D02*
X63528571Y-57052380D01*
X63623809Y-57100000D01*
X63719047Y-57195238D01*
X63766666Y-57385714D01*
X63766666Y-57719047D01*
X63719047Y-57909523D01*
X63623809Y-58004761D01*
X63528571Y-58052380D01*
X63338095Y-58052380D01*
X63242857Y-58004761D01*
X63147619Y-57909523D01*
X63100000Y-57719047D01*
X63100000Y-57385714D01*
X63147619Y-57195238D01*
X63242857Y-57100000D01*
X63338095Y-57052380D01*
X64052380Y-57052380D02*
X64623809Y-57052380D01*
X64338095Y-58052380D02*
X64338095Y-57052380D01*
X65719047Y-57528571D02*
X66052380Y-57528571D01*
X66195238Y-58052380D02*
X65719047Y-58052380D01*
X65719047Y-57052380D01*
X66195238Y-57052380D01*
X66576190Y-58004761D02*
X66719047Y-58052380D01*
X66957142Y-58052380D01*
X67052380Y-58004761D01*
X67100000Y-57957142D01*
X67147619Y-57861904D01*
X67147619Y-57766666D01*
X67100000Y-57671428D01*
X67052380Y-57623809D01*
X66957142Y-57576190D01*
X66766666Y-57528571D01*
X66671428Y-57480952D01*
X66623809Y-57433333D01*
X66576190Y-57338095D01*
X66576190Y-57242857D01*
X66623809Y-57147619D01*
X66671428Y-57100000D01*
X66766666Y-57052380D01*
X67004761Y-57052380D01*
X67147619Y-57100000D01*
X67576190Y-58052380D02*
X67576190Y-57052380D01*
X67957142Y-57052380D01*
X68052380Y-57100000D01*
X68100000Y-57147619D01*
X68147619Y-57242857D01*
X68147619Y-57385714D01*
X68100000Y-57480952D01*
X68052380Y-57528571D01*
X67957142Y-57576190D01*
X67576190Y-57576190D01*
X62550000Y-51416666D02*
X62550000Y-50716666D01*
X62716666Y-50716666D01*
X62816666Y-50750000D01*
X62883333Y-50816666D01*
X62916666Y-50883333D01*
X62950000Y-51016666D01*
X62950000Y-51116666D01*
X62916666Y-51250000D01*
X62883333Y-51316666D01*
X62816666Y-51383333D01*
X62716666Y-51416666D01*
X62550000Y-51416666D01*
X63383333Y-50716666D02*
X63516666Y-50716666D01*
X63583333Y-50750000D01*
X63650000Y-50816666D01*
X63683333Y-50950000D01*
X63683333Y-51183333D01*
X63650000Y-51316666D01*
X63583333Y-51383333D01*
X63516666Y-51416666D01*
X63383333Y-51416666D01*
X63316666Y-51383333D01*
X63250000Y-51316666D01*
X63216666Y-51183333D01*
X63216666Y-50950000D01*
X63250000Y-50816666D01*
X63316666Y-50750000D01*
X63383333Y-50716666D01*
X52016666Y-50666666D02*
X52416666Y-50666666D01*
X52216666Y-51366666D02*
X52216666Y-50666666D01*
X52583333Y-50666666D02*
X53050000Y-51366666D01*
X53050000Y-50666666D02*
X52583333Y-51366666D01*
X46416666Y-50666666D02*
X46850000Y-50666666D01*
X46616666Y-50933333D01*
X46716666Y-50933333D01*
X46783333Y-50966666D01*
X46816666Y-51000000D01*
X46850000Y-51066666D01*
X46850000Y-51233333D01*
X46816666Y-51300000D01*
X46783333Y-51333333D01*
X46716666Y-51366666D01*
X46516666Y-51366666D01*
X46450000Y-51333333D01*
X46416666Y-51300000D01*
X47150000Y-51300000D02*
X47183333Y-51333333D01*
X47150000Y-51366666D01*
X47116666Y-51333333D01*
X47150000Y-51300000D01*
X47150000Y-51366666D01*
X47416666Y-50666666D02*
X47850000Y-50666666D01*
X47616666Y-50933333D01*
X47716666Y-50933333D01*
X47783333Y-50966666D01*
X47816666Y-51000000D01*
X47850000Y-51066666D01*
X47850000Y-51233333D01*
X47816666Y-51300000D01*
X47783333Y-51333333D01*
X47716666Y-51366666D01*
X47516666Y-51366666D01*
X47450000Y-51333333D01*
X47416666Y-51300000D01*
X48050000Y-50666666D02*
X48283333Y-51366666D01*
X48516666Y-50666666D01*
X33533333Y-50666666D02*
X33933333Y-50666666D01*
X33733333Y-51366666D02*
X33733333Y-50666666D01*
X34166666Y-51366666D02*
X34166666Y-50666666D01*
X34333333Y-50666666D01*
X34433333Y-50700000D01*
X34500000Y-50766666D01*
X34533333Y-50833333D01*
X34566666Y-50966666D01*
X34566666Y-51066666D01*
X34533333Y-51200000D01*
X34500000Y-51266666D01*
X34433333Y-51333333D01*
X34333333Y-51366666D01*
X34166666Y-51366666D01*
X34866666Y-51366666D02*
X34866666Y-50666666D01*
D12*
X32978571Y-94214285D02*
X32978571Y-95071428D01*
X32978571Y-94642857D02*
X31478571Y-94642857D01*
X31692857Y-94785714D01*
X31835714Y-94928571D01*
X31907142Y-95071428D01*
X32550000Y-93642857D02*
X32550000Y-92928571D01*
X32978571Y-93785714D02*
X31478571Y-93285714D01*
X32978571Y-92785714D01*
D11*
X68016666Y-50666666D02*
X67683333Y-50666666D01*
X67650000Y-51000000D01*
X67683333Y-50966666D01*
X67750000Y-50933333D01*
X67916666Y-50933333D01*
X67983333Y-50966666D01*
X68016666Y-51000000D01*
X68050000Y-51066666D01*
X68050000Y-51233333D01*
X68016666Y-51300000D01*
X67983333Y-51333333D01*
X67916666Y-51366666D01*
X67750000Y-51366666D01*
X67683333Y-51333333D01*
X67650000Y-51300000D01*
X68250000Y-50666666D02*
X68483333Y-51366666D01*
X68716666Y-50666666D01*
X36033333Y-50716666D02*
X36433333Y-50716666D01*
X36233333Y-51416666D02*
X36233333Y-50716666D01*
X36666666Y-51416666D02*
X36666666Y-50716666D01*
X36833333Y-50716666D01*
X36933333Y-50750000D01*
X37000000Y-50816666D01*
X37033333Y-50883333D01*
X37066666Y-51016666D01*
X37066666Y-51116666D01*
X37033333Y-51250000D01*
X37000000Y-51316666D01*
X36933333Y-51383333D01*
X36833333Y-51416666D01*
X36666666Y-51416666D01*
X37500000Y-50716666D02*
X37633333Y-50716666D01*
X37700000Y-50750000D01*
X37766666Y-50816666D01*
X37800000Y-50950000D01*
X37800000Y-51183333D01*
X37766666Y-51316666D01*
X37700000Y-51383333D01*
X37633333Y-51416666D01*
X37500000Y-51416666D01*
X37433333Y-51383333D01*
X37366666Y-51316666D01*
X37333333Y-51183333D01*
X37333333Y-50950000D01*
X37366666Y-50816666D01*
X37433333Y-50750000D01*
X37500000Y-50716666D01*
X50642857Y-96019714D02*
X50814285Y-96076857D01*
X51100000Y-96076857D01*
X51214285Y-96019714D01*
X51271428Y-95962571D01*
X51328571Y-95848285D01*
X51328571Y-95734000D01*
X51271428Y-95619714D01*
X51214285Y-95562571D01*
X51100000Y-95505428D01*
X50871428Y-95448285D01*
X50757142Y-95391142D01*
X50700000Y-95334000D01*
X50642857Y-95219714D01*
X50642857Y-95105428D01*
X50700000Y-94991142D01*
X50757142Y-94934000D01*
X50871428Y-94876857D01*
X51157142Y-94876857D01*
X51328571Y-94934000D01*
X51842857Y-96076857D02*
X51842857Y-95276857D01*
X51842857Y-95391142D02*
X51900000Y-95334000D01*
X52014285Y-95276857D01*
X52185714Y-95276857D01*
X52300000Y-95334000D01*
X52357142Y-95448285D01*
X52357142Y-96076857D01*
X52357142Y-95448285D02*
X52414285Y-95334000D01*
X52528571Y-95276857D01*
X52700000Y-95276857D01*
X52814285Y-95334000D01*
X52871428Y-95448285D01*
X52871428Y-96076857D01*
X53957142Y-96076857D02*
X53957142Y-95448285D01*
X53900000Y-95334000D01*
X53785714Y-95276857D01*
X53557142Y-95276857D01*
X53442857Y-95334000D01*
X53957142Y-96019714D02*
X53842857Y-96076857D01*
X53557142Y-96076857D01*
X53442857Y-96019714D01*
X53385714Y-95905428D01*
X53385714Y-95791142D01*
X53442857Y-95676857D01*
X53557142Y-95619714D01*
X53842857Y-95619714D01*
X53957142Y-95562571D01*
X54528571Y-96076857D02*
X54528571Y-95276857D01*
X54528571Y-95505428D02*
X54585714Y-95391142D01*
X54642857Y-95334000D01*
X54757142Y-95276857D01*
X54871428Y-95276857D01*
X55100000Y-95276857D02*
X55557142Y-95276857D01*
X55271428Y-94876857D02*
X55271428Y-95905428D01*
X55328571Y-96019714D01*
X55442857Y-96076857D01*
X55557142Y-96076857D01*
X57442857Y-96076857D02*
X56871428Y-96076857D01*
X56871428Y-94876857D01*
X58014285Y-96076857D02*
X57900000Y-96019714D01*
X57842857Y-95962571D01*
X57785714Y-95848285D01*
X57785714Y-95505428D01*
X57842857Y-95391142D01*
X57900000Y-95334000D01*
X58014285Y-95276857D01*
X58185714Y-95276857D01*
X58300000Y-95334000D01*
X58357142Y-95391142D01*
X58414285Y-95505428D01*
X58414285Y-95848285D01*
X58357142Y-95962571D01*
X58300000Y-96019714D01*
X58185714Y-96076857D01*
X58014285Y-96076857D01*
X59442857Y-95276857D02*
X59442857Y-96248285D01*
X59385714Y-96362571D01*
X59328571Y-96419714D01*
X59214285Y-96476857D01*
X59042857Y-96476857D01*
X58928571Y-96419714D01*
X59442857Y-96019714D02*
X59328571Y-96076857D01*
X59100000Y-96076857D01*
X58985714Y-96019714D01*
X58928571Y-95962571D01*
X58871428Y-95848285D01*
X58871428Y-95505428D01*
X58928571Y-95391142D01*
X58985714Y-95334000D01*
X59100000Y-95276857D01*
X59328571Y-95276857D01*
X59442857Y-95334000D01*
X60014285Y-96076857D02*
X60014285Y-95276857D01*
X60014285Y-94876857D02*
X59957142Y-94934000D01*
X60014285Y-94991142D01*
X60071428Y-94934000D01*
X60014285Y-94876857D01*
X60014285Y-94991142D01*
X61100000Y-96019714D02*
X60985714Y-96076857D01*
X60757142Y-96076857D01*
X60642857Y-96019714D01*
X60585714Y-95962571D01*
X60528571Y-95848285D01*
X60528571Y-95505428D01*
X60585714Y-95391142D01*
X60642857Y-95334000D01*
X60757142Y-95276857D01*
X60985714Y-95276857D01*
X61100000Y-95334000D01*
X62471428Y-96019714D02*
X62642857Y-96076857D01*
X62928571Y-96076857D01*
X63042857Y-96019714D01*
X63100000Y-95962571D01*
X63157142Y-95848285D01*
X63157142Y-95734000D01*
X63100000Y-95619714D01*
X63042857Y-95562571D01*
X62928571Y-95505428D01*
X62700000Y-95448285D01*
X62585714Y-95391142D01*
X62528571Y-95334000D01*
X62471428Y-95219714D01*
X62471428Y-95105428D01*
X62528571Y-94991142D01*
X62585714Y-94934000D01*
X62700000Y-94876857D01*
X62985714Y-94876857D01*
X63157142Y-94934000D01*
X63557142Y-95276857D02*
X63842857Y-96076857D01*
X64128571Y-95276857D02*
X63842857Y-96076857D01*
X63728571Y-96362571D01*
X63671428Y-96419714D01*
X63557142Y-96476857D01*
X64528571Y-96019714D02*
X64642857Y-96076857D01*
X64871428Y-96076857D01*
X64985714Y-96019714D01*
X65042857Y-95905428D01*
X65042857Y-95848285D01*
X64985714Y-95734000D01*
X64871428Y-95676857D01*
X64700000Y-95676857D01*
X64585714Y-95619714D01*
X64528571Y-95505428D01*
X64528571Y-95448285D01*
X64585714Y-95334000D01*
X64700000Y-95276857D01*
X64871428Y-95276857D01*
X64985714Y-95334000D01*
X65385714Y-95276857D02*
X65842857Y-95276857D01*
X65557142Y-94876857D02*
X65557142Y-95905428D01*
X65614285Y-96019714D01*
X65728571Y-96076857D01*
X65842857Y-96076857D01*
X66700000Y-96019714D02*
X66585714Y-96076857D01*
X66357142Y-96076857D01*
X66242857Y-96019714D01*
X66185714Y-95905428D01*
X66185714Y-95448285D01*
X66242857Y-95334000D01*
X66357142Y-95276857D01*
X66585714Y-95276857D01*
X66700000Y-95334000D01*
X66757142Y-95448285D01*
X66757142Y-95562571D01*
X66185714Y-95676857D01*
X67271428Y-96076857D02*
X67271428Y-95276857D01*
X67271428Y-95391142D02*
X67328571Y-95334000D01*
X67442857Y-95276857D01*
X67614285Y-95276857D01*
X67728571Y-95334000D01*
X67785714Y-95448285D01*
X67785714Y-96076857D01*
X67785714Y-95448285D02*
X67842857Y-95334000D01*
X67957142Y-95276857D01*
X68128571Y-95276857D01*
X68242857Y-95334000D01*
X68300000Y-95448285D01*
X68300000Y-96076857D01*
X56785714Y-96866000D02*
X56671428Y-96808857D01*
X56499999Y-96808857D01*
X56328571Y-96866000D01*
X56214285Y-96980285D01*
X56157142Y-97094571D01*
X56099999Y-97323142D01*
X56099999Y-97494571D01*
X56157142Y-97723142D01*
X56214285Y-97837428D01*
X56328571Y-97951714D01*
X56499999Y-98008857D01*
X56614285Y-98008857D01*
X56785714Y-97951714D01*
X56842857Y-97894571D01*
X56842857Y-97494571D01*
X56614285Y-97494571D01*
X57871428Y-98008857D02*
X57871428Y-97380285D01*
X57814285Y-97266000D01*
X57699999Y-97208857D01*
X57471428Y-97208857D01*
X57357142Y-97266000D01*
X57871428Y-97951714D02*
X57757142Y-98008857D01*
X57471428Y-98008857D01*
X57357142Y-97951714D01*
X57299999Y-97837428D01*
X57299999Y-97723142D01*
X57357142Y-97608857D01*
X57471428Y-97551714D01*
X57757142Y-97551714D01*
X57871428Y-97494571D01*
X58271428Y-97208857D02*
X58728571Y-97208857D01*
X58442857Y-96808857D02*
X58442857Y-97837428D01*
X58499999Y-97951714D01*
X58614285Y-98008857D01*
X58728571Y-98008857D01*
X59585714Y-97951714D02*
X59471428Y-98008857D01*
X59242857Y-98008857D01*
X59128571Y-97951714D01*
X59071428Y-97837428D01*
X59071428Y-97380285D01*
X59128571Y-97266000D01*
X59242857Y-97208857D01*
X59471428Y-97208857D01*
X59585714Y-97266000D01*
X59642857Y-97380285D01*
X59642857Y-97494571D01*
X59071428Y-97608857D01*
X60042857Y-97208857D02*
X60271428Y-98008857D01*
X60499999Y-97437428D01*
X60728571Y-98008857D01*
X60957142Y-97208857D01*
X61928571Y-98008857D02*
X61928571Y-97380285D01*
X61871428Y-97266000D01*
X61757142Y-97208857D01*
X61528571Y-97208857D01*
X61414285Y-97266000D01*
X61928571Y-97951714D02*
X61814285Y-98008857D01*
X61528571Y-98008857D01*
X61414285Y-97951714D01*
X61357142Y-97837428D01*
X61357142Y-97723142D01*
X61414285Y-97608857D01*
X61528571Y-97551714D01*
X61814285Y-97551714D01*
X61928571Y-97494571D01*
X62385714Y-97208857D02*
X62671428Y-98008857D01*
X62957142Y-97208857D02*
X62671428Y-98008857D01*
X62557142Y-98294571D01*
X62499999Y-98351714D01*
X62385714Y-98408857D01*
X43466666Y-50716666D02*
X43900000Y-50716666D01*
X43666666Y-50983333D01*
X43766666Y-50983333D01*
X43833333Y-51016666D01*
X43866666Y-51050000D01*
X43900000Y-51116666D01*
X43900000Y-51283333D01*
X43866666Y-51350000D01*
X43833333Y-51383333D01*
X43766666Y-51416666D01*
X43566666Y-51416666D01*
X43500000Y-51383333D01*
X43466666Y-51350000D01*
X44200000Y-51350000D02*
X44233333Y-51383333D01*
X44200000Y-51416666D01*
X44166666Y-51383333D01*
X44200000Y-51350000D01*
X44200000Y-51416666D01*
X44466666Y-50716666D02*
X44900000Y-50716666D01*
X44666666Y-50983333D01*
X44766666Y-50983333D01*
X44833333Y-51016666D01*
X44866666Y-51050000D01*
X44900000Y-51116666D01*
X44900000Y-51283333D01*
X44866666Y-51350000D01*
X44833333Y-51383333D01*
X44766666Y-51416666D01*
X44566666Y-51416666D01*
X44500000Y-51383333D01*
X44466666Y-51350000D01*
X45100000Y-50716666D02*
X45333333Y-51416666D01*
X45566666Y-50716666D01*
X52500000Y-99285714D02*
X52738095Y-99952380D01*
X52976190Y-99285714D01*
X54595238Y-99952380D02*
X54119047Y-99952380D01*
X54119047Y-98952380D01*
X54928571Y-99428571D02*
X55261904Y-99428571D01*
X55404761Y-99952380D02*
X54928571Y-99952380D01*
X54928571Y-98952380D01*
X55404761Y-98952380D01*
X55833333Y-99952380D02*
X55833333Y-98952380D01*
X56071428Y-98952380D01*
X56214285Y-99000000D01*
X56309523Y-99095238D01*
X56357142Y-99190476D01*
X56404761Y-99380952D01*
X56404761Y-99523809D01*
X56357142Y-99714285D01*
X56309523Y-99809523D01*
X56214285Y-99904761D01*
X56071428Y-99952380D01*
X55833333Y-99952380D01*
X57595238Y-99428571D02*
X57928571Y-99428571D01*
X58071428Y-99952380D02*
X57595238Y-99952380D01*
X57595238Y-98952380D01*
X58071428Y-98952380D01*
X59023809Y-99000000D02*
X58928571Y-98952380D01*
X58785714Y-98952380D01*
X58642857Y-99000000D01*
X58547619Y-99095238D01*
X58500000Y-99190476D01*
X58452380Y-99380952D01*
X58452380Y-99523809D01*
X58500000Y-99714285D01*
X58547619Y-99809523D01*
X58642857Y-99904761D01*
X58785714Y-99952380D01*
X58880952Y-99952380D01*
X59023809Y-99904761D01*
X59071428Y-99857142D01*
X59071428Y-99523809D01*
X58880952Y-99523809D01*
X59976190Y-99952380D02*
X59500000Y-99952380D01*
X59500000Y-98952380D01*
X60500000Y-98952380D02*
X60690476Y-98952380D01*
X60785714Y-99000000D01*
X60880952Y-99095238D01*
X60928571Y-99285714D01*
X60928571Y-99619047D01*
X60880952Y-99809523D01*
X60785714Y-99904761D01*
X60690476Y-99952380D01*
X60500000Y-99952380D01*
X60404761Y-99904761D01*
X60309523Y-99809523D01*
X60261904Y-99619047D01*
X60261904Y-99285714D01*
X60309523Y-99095238D01*
X60404761Y-99000000D01*
X60500000Y-98952380D01*
X62166666Y-99952380D02*
X62357142Y-99952380D01*
X62452380Y-99904761D01*
X62500000Y-99857142D01*
X62595238Y-99714285D01*
X62642857Y-99523809D01*
X62642857Y-99142857D01*
X62595238Y-99047619D01*
X62547619Y-99000000D01*
X62452380Y-98952380D01*
X62261904Y-98952380D01*
X62166666Y-99000000D01*
X62119047Y-99047619D01*
X62071428Y-99142857D01*
X62071428Y-99380952D01*
X62119047Y-99476190D01*
X62166666Y-99523809D01*
X62261904Y-99571428D01*
X62452380Y-99571428D01*
X62547619Y-99523809D01*
X62595238Y-99476190D01*
X62642857Y-99380952D01*
X63023809Y-99047619D02*
X63071428Y-99000000D01*
X63166666Y-98952380D01*
X63404761Y-98952380D01*
X63500000Y-99000000D01*
X63547619Y-99047619D01*
X63595238Y-99142857D01*
X63595238Y-99238095D01*
X63547619Y-99380952D01*
X62976190Y-99952380D01*
X63595238Y-99952380D01*
X64071428Y-99952380D02*
X64261904Y-99952380D01*
X64357142Y-99904761D01*
X64404761Y-99857142D01*
X64500000Y-99714285D01*
X64547619Y-99523809D01*
X64547619Y-99142857D01*
X64500000Y-99047619D01*
X64452380Y-99000000D01*
X64357142Y-98952380D01*
X64166666Y-98952380D01*
X64071428Y-99000000D01*
X64023809Y-99047619D01*
X63976190Y-99142857D01*
X63976190Y-99380952D01*
X64023809Y-99476190D01*
X64071428Y-99523809D01*
X64166666Y-99571428D01*
X64357142Y-99571428D01*
X64452380Y-99523809D01*
X64500000Y-99476190D01*
X64547619Y-99380952D01*
X65404761Y-98952380D02*
X65214285Y-98952380D01*
X65119047Y-99000000D01*
X65071428Y-99047619D01*
X64976190Y-99190476D01*
X64928571Y-99380952D01*
X64928571Y-99761904D01*
X64976190Y-99857142D01*
X65023809Y-99904761D01*
X65119047Y-99952380D01*
X65309523Y-99952380D01*
X65404761Y-99904761D01*
X65452380Y-99857142D01*
X65500000Y-99761904D01*
X65500000Y-99523809D01*
X65452380Y-99428571D01*
X65404761Y-99380952D01*
X65309523Y-99333333D01*
X65119047Y-99333333D01*
X65023809Y-99380952D01*
X64976190Y-99428571D01*
X64928571Y-99523809D01*
X66357142Y-99285714D02*
X66357142Y-99952380D01*
X66119047Y-98904761D02*
X65880952Y-99619047D01*
X66500000Y-99619047D01*
D12*
X32078571Y-84285714D02*
X33078571Y-84285714D01*
X31507142Y-84642857D02*
X32578571Y-85000000D01*
X32578571Y-84071428D01*
X31578571Y-83642857D02*
X31578571Y-82714285D01*
X32150000Y-83214285D01*
X32150000Y-83000000D01*
X32221428Y-82857142D01*
X32292857Y-82785714D01*
X32435714Y-82714285D01*
X32792857Y-82714285D01*
X32935714Y-82785714D01*
X33007142Y-82857142D01*
X33078571Y-83000000D01*
X33078571Y-83428571D01*
X33007142Y-83571428D01*
X32935714Y-83642857D01*
X31578571Y-81785714D02*
X31578571Y-81642857D01*
X31650000Y-81500000D01*
X31721428Y-81428571D01*
X31864285Y-81357142D01*
X32150000Y-81285714D01*
X32507142Y-81285714D01*
X32792857Y-81357142D01*
X32935714Y-81428571D01*
X33007142Y-81500000D01*
X33078571Y-81642857D01*
X33078571Y-81785714D01*
X33007142Y-81928571D01*
X32935714Y-82000000D01*
X32792857Y-82071428D01*
X32507142Y-82142857D01*
X32150000Y-82142857D01*
X31864285Y-82071428D01*
X31721428Y-82000000D01*
X31650000Y-81928571D01*
X31578571Y-81785714D01*
X31578571Y-80857142D02*
X33078571Y-80357142D01*
X31578571Y-79857142D01*
D11*
X61238095Y-63952380D02*
X60904761Y-63476190D01*
X60666666Y-63952380D02*
X60666666Y-62952380D01*
X61047619Y-62952380D01*
X61142857Y-63000000D01*
X61190476Y-63047619D01*
X61238095Y-63142857D01*
X61238095Y-63285714D01*
X61190476Y-63380952D01*
X61142857Y-63428571D01*
X61047619Y-63476190D01*
X60666666Y-63476190D01*
X61666666Y-63428571D02*
X62000000Y-63428571D01*
X62142857Y-63952380D02*
X61666666Y-63952380D01*
X61666666Y-62952380D01*
X62142857Y-62952380D01*
X62523809Y-63904761D02*
X62666666Y-63952380D01*
X62904761Y-63952380D01*
X63000000Y-63904761D01*
X63047619Y-63857142D01*
X63095238Y-63761904D01*
X63095238Y-63666666D01*
X63047619Y-63571428D01*
X63000000Y-63523809D01*
X62904761Y-63476190D01*
X62714285Y-63428571D01*
X62619047Y-63380952D01*
X62571428Y-63333333D01*
X62523809Y-63238095D01*
X62523809Y-63142857D01*
X62571428Y-63047619D01*
X62619047Y-63000000D01*
X62714285Y-62952380D01*
X62952380Y-62952380D01*
X63095238Y-63000000D01*
X63523809Y-63428571D02*
X63857142Y-63428571D01*
X64000000Y-63952380D02*
X63523809Y-63952380D01*
X63523809Y-62952380D01*
X64000000Y-62952380D01*
X64285714Y-62952380D02*
X64857142Y-62952380D01*
X64571428Y-63952380D02*
X64571428Y-62952380D01*
X65952380Y-63428571D02*
X66285714Y-63428571D01*
X66428571Y-63952380D02*
X65952380Y-63952380D01*
X65952380Y-62952380D01*
X66428571Y-62952380D01*
X66809523Y-63904761D02*
X66952380Y-63952380D01*
X67190476Y-63952380D01*
X67285714Y-63904761D01*
X67333333Y-63857142D01*
X67380952Y-63761904D01*
X67380952Y-63666666D01*
X67333333Y-63571428D01*
X67285714Y-63523809D01*
X67190476Y-63476190D01*
X67000000Y-63428571D01*
X66904761Y-63380952D01*
X66857142Y-63333333D01*
X66809523Y-63238095D01*
X66809523Y-63142857D01*
X66857142Y-63047619D01*
X66904761Y-63000000D01*
X67000000Y-62952380D01*
X67238095Y-62952380D01*
X67380952Y-63000000D01*
X67809523Y-63952380D02*
X67809523Y-62952380D01*
X68190476Y-62952380D01*
X68285714Y-63000000D01*
X68333333Y-63047619D01*
X68380952Y-63142857D01*
X68380952Y-63285714D01*
X68333333Y-63380952D01*
X68285714Y-63428571D01*
X68190476Y-63476190D01*
X67809523Y-63476190D01*
X57116666Y-50700000D02*
X57050000Y-50666666D01*
X56950000Y-50666666D01*
X56850000Y-50700000D01*
X56783333Y-50766666D01*
X56750000Y-50833333D01*
X56716666Y-50966666D01*
X56716666Y-51066666D01*
X56750000Y-51200000D01*
X56783333Y-51266666D01*
X56850000Y-51333333D01*
X56950000Y-51366666D01*
X57016666Y-51366666D01*
X57116666Y-51333333D01*
X57150000Y-51300000D01*
X57150000Y-51066666D01*
X57016666Y-51066666D01*
X57450000Y-51366666D02*
X57450000Y-50666666D01*
X57850000Y-51366666D01*
X57850000Y-50666666D01*
X58183333Y-51366666D02*
X58183333Y-50666666D01*
X58350000Y-50666666D01*
X58450000Y-50700000D01*
X58516666Y-50766666D01*
X58550000Y-50833333D01*
X58583333Y-50966666D01*
X58583333Y-51066666D01*
X58550000Y-51200000D01*
X58516666Y-51266666D01*
X58450000Y-51333333D01*
X58350000Y-51366666D01*
X58183333Y-51366666D01*
X31116666Y-50700000D02*
X31050000Y-50666666D01*
X30950000Y-50666666D01*
X30850000Y-50700000D01*
X30783333Y-50766666D01*
X30750000Y-50833333D01*
X30716666Y-50966666D01*
X30716666Y-51066666D01*
X30750000Y-51200000D01*
X30783333Y-51266666D01*
X30850000Y-51333333D01*
X30950000Y-51366666D01*
X31016666Y-51366666D01*
X31116666Y-51333333D01*
X31150000Y-51300000D01*
X31150000Y-51066666D01*
X31016666Y-51066666D01*
X31450000Y-51366666D02*
X31450000Y-50666666D01*
X31850000Y-51366666D01*
X31850000Y-50666666D01*
X32183333Y-51366666D02*
X32183333Y-50666666D01*
X32350000Y-50666666D01*
X32450000Y-50700000D01*
X32516666Y-50766666D01*
X32550000Y-50833333D01*
X32583333Y-50966666D01*
X32583333Y-51066666D01*
X32550000Y-51200000D01*
X32516666Y-51266666D01*
X32450000Y-51333333D01*
X32350000Y-51366666D01*
X32183333Y-51366666D01*
X65300000Y-51366666D02*
X65300000Y-50666666D01*
X65466666Y-50666666D01*
X65566666Y-50700000D01*
X65633333Y-50766666D01*
X65666666Y-50833333D01*
X65700000Y-50966666D01*
X65700000Y-51066666D01*
X65666666Y-51200000D01*
X65633333Y-51266666D01*
X65566666Y-51333333D01*
X65466666Y-51366666D01*
X65300000Y-51366666D01*
X66000000Y-51366666D02*
X66000000Y-50666666D01*
X54933333Y-51366666D02*
X54700000Y-51033333D01*
X54533333Y-51366666D02*
X54533333Y-50666666D01*
X54800000Y-50666666D01*
X54866666Y-50700000D01*
X54900000Y-50733333D01*
X54933333Y-50800000D01*
X54933333Y-50900000D01*
X54900000Y-50966666D01*
X54866666Y-51000000D01*
X54800000Y-51033333D01*
X54533333Y-51033333D01*
X55166666Y-50666666D02*
X55633333Y-51366666D01*
X55633333Y-50666666D02*
X55166666Y-51366666D01*
X49150000Y-51366666D02*
X49150000Y-50666666D01*
X49316666Y-50666666D01*
X49416666Y-50700000D01*
X49483333Y-50766666D01*
X49516666Y-50833333D01*
X49550000Y-50966666D01*
X49550000Y-51066666D01*
X49516666Y-51200000D01*
X49483333Y-51266666D01*
X49416666Y-51333333D01*
X49316666Y-51366666D01*
X49150000Y-51366666D01*
X49750000Y-50666666D02*
X50150000Y-50666666D01*
X49950000Y-51366666D02*
X49950000Y-50666666D01*
X50783333Y-51366666D02*
X50550000Y-51033333D01*
X50383333Y-51366666D02*
X50383333Y-50666666D01*
X50650000Y-50666666D01*
X50716666Y-50700000D01*
X50750000Y-50733333D01*
X50783333Y-50800000D01*
X50783333Y-50900000D01*
X50750000Y-50966666D01*
X50716666Y-51000000D01*
X50650000Y-51033333D01*
X50383333Y-51033333D01*
X34147619Y-63952380D02*
X33814285Y-63476190D01*
X33576190Y-63952380D02*
X33576190Y-62952380D01*
X33957142Y-62952380D01*
X34052380Y-63000000D01*
X34100000Y-63047619D01*
X34147619Y-63142857D01*
X34147619Y-63285714D01*
X34100000Y-63380952D01*
X34052380Y-63428571D01*
X33957142Y-63476190D01*
X33576190Y-63476190D01*
X34576190Y-63428571D02*
X34909523Y-63428571D01*
X35052380Y-63952380D02*
X34576190Y-63952380D01*
X34576190Y-62952380D01*
X35052380Y-62952380D01*
X35433333Y-63904761D02*
X35576190Y-63952380D01*
X35814285Y-63952380D01*
X35909523Y-63904761D01*
X35957142Y-63857142D01*
X36004761Y-63761904D01*
X36004761Y-63666666D01*
X35957142Y-63571428D01*
X35909523Y-63523809D01*
X35814285Y-63476190D01*
X35623809Y-63428571D01*
X35528571Y-63380952D01*
X35480952Y-63333333D01*
X35433333Y-63238095D01*
X35433333Y-63142857D01*
X35480952Y-63047619D01*
X35528571Y-63000000D01*
X35623809Y-62952380D01*
X35861904Y-62952380D01*
X36004761Y-63000000D01*
X36433333Y-63428571D02*
X36766666Y-63428571D01*
X36909523Y-63952380D02*
X36433333Y-63952380D01*
X36433333Y-62952380D01*
X36909523Y-62952380D01*
X37195238Y-62952380D02*
X37766666Y-62952380D01*
X37480952Y-63952380D02*
X37480952Y-62952380D01*
X60016666Y-50700000D02*
X59950000Y-50666666D01*
X59850000Y-50666666D01*
X59750000Y-50700000D01*
X59683333Y-50766666D01*
X59650000Y-50833333D01*
X59616666Y-50966666D01*
X59616666Y-51066666D01*
X59650000Y-51200000D01*
X59683333Y-51266666D01*
X59750000Y-51333333D01*
X59850000Y-51366666D01*
X59916666Y-51366666D01*
X60016666Y-51333333D01*
X60050000Y-51300000D01*
X60050000Y-51066666D01*
X59916666Y-51066666D01*
X60350000Y-51366666D02*
X60350000Y-50666666D01*
X60750000Y-51366666D01*
X60750000Y-50666666D01*
X61083333Y-51366666D02*
X61083333Y-50666666D01*
X61250000Y-50666666D01*
X61350000Y-50700000D01*
X61416666Y-50766666D01*
X61450000Y-50833333D01*
X61483333Y-50966666D01*
X61483333Y-51066666D01*
X61450000Y-51200000D01*
X61416666Y-51266666D01*
X61350000Y-51333333D01*
X61250000Y-51366666D01*
X61083333Y-51366666D01*
X48666666Y-106304761D02*
X48809523Y-106352380D01*
X49047619Y-106352380D01*
X49142857Y-106304761D01*
X49190476Y-106257142D01*
X49238095Y-106161904D01*
X49238095Y-106066666D01*
X49190476Y-105971428D01*
X49142857Y-105923809D01*
X49047619Y-105876190D01*
X48857142Y-105828571D01*
X48761904Y-105780952D01*
X48714285Y-105733333D01*
X48666666Y-105638095D01*
X48666666Y-105542857D01*
X48714285Y-105447619D01*
X48761904Y-105400000D01*
X48857142Y-105352380D01*
X49095238Y-105352380D01*
X49238095Y-105400000D01*
X49571428Y-105352380D02*
X49809523Y-106352380D01*
X50000000Y-105638095D01*
X50190476Y-106352380D01*
X50428571Y-105352380D01*
X51333333Y-106352380D02*
X50761904Y-106352380D01*
X51047619Y-106352380D02*
X51047619Y-105352380D01*
X50952380Y-105495238D01*
X50857142Y-105590476D01*
X50761904Y-105638095D01*
X38650000Y-50666666D02*
X39050000Y-50666666D01*
X38850000Y-51366666D02*
X38850000Y-50666666D01*
X39683333Y-51300000D02*
X39650000Y-51333333D01*
X39550000Y-51366666D01*
X39483333Y-51366666D01*
X39383333Y-51333333D01*
X39316666Y-51266666D01*
X39283333Y-51200000D01*
X39250000Y-51066666D01*
X39250000Y-50966666D01*
X39283333Y-50833333D01*
X39316666Y-50766666D01*
X39383333Y-50700000D01*
X39483333Y-50666666D01*
X39550000Y-50666666D01*
X39650000Y-50700000D01*
X39683333Y-50733333D01*
X39983333Y-51366666D02*
X39983333Y-50666666D01*
X40383333Y-51366666D02*
X40083333Y-50966666D01*
X40383333Y-50666666D02*
X39983333Y-51066666D01*
X33959523Y-57528571D02*
X33626190Y-57528571D01*
X33626190Y-58052380D02*
X33626190Y-57052380D01*
X34102380Y-57052380D01*
X34959523Y-58052380D02*
X34483333Y-58052380D01*
X34483333Y-57052380D01*
X35245238Y-57766666D02*
X35721428Y-57766666D01*
X35150000Y-58052380D02*
X35483333Y-57052380D01*
X35816666Y-58052380D01*
X36102380Y-58004761D02*
X36245238Y-58052380D01*
X36483333Y-58052380D01*
X36578571Y-58004761D01*
X36626190Y-57957142D01*
X36673809Y-57861904D01*
X36673809Y-57766666D01*
X36626190Y-57671428D01*
X36578571Y-57623809D01*
X36483333Y-57576190D01*
X36292857Y-57528571D01*
X36197619Y-57480952D01*
X36150000Y-57433333D01*
X36102380Y-57338095D01*
X36102380Y-57242857D01*
X36150000Y-57147619D01*
X36197619Y-57100000D01*
X36292857Y-57052380D01*
X36530952Y-57052380D01*
X36673809Y-57100000D01*
X37102380Y-58052380D02*
X37102380Y-57052380D01*
X37102380Y-57528571D02*
X37673809Y-57528571D01*
X37673809Y-58052380D02*
X37673809Y-57052380D01*
X49385714Y-42652380D02*
X48814285Y-42652380D01*
X49100000Y-42652380D02*
X49100000Y-41652380D01*
X49004761Y-41795238D01*
X48909523Y-41890476D01*
X48814285Y-41938095D01*
X66933333Y-71157142D02*
X66885714Y-71204761D01*
X66742857Y-71252380D01*
X66647619Y-71252380D01*
X66504761Y-71204761D01*
X66409523Y-71109523D01*
X66361904Y-71014285D01*
X66314285Y-70823809D01*
X66314285Y-70680952D01*
X66361904Y-70490476D01*
X66409523Y-70395238D01*
X66504761Y-70300000D01*
X66647619Y-70252380D01*
X66742857Y-70252380D01*
X66885714Y-70300000D01*
X66933333Y-70347619D01*
X67838095Y-70252380D02*
X67361904Y-70252380D01*
X67314285Y-70728571D01*
X67361904Y-70680952D01*
X67457142Y-70633333D01*
X67695238Y-70633333D01*
X67790476Y-70680952D01*
X67838095Y-70728571D01*
X67885714Y-70823809D01*
X67885714Y-71061904D01*
X67838095Y-71157142D01*
X67790476Y-71204761D01*
X67695238Y-71252380D01*
X67457142Y-71252380D01*
X67361904Y-71204761D01*
X67314285Y-71157142D01*
X55933333Y-61102380D02*
X55600000Y-60626190D01*
X55361904Y-61102380D02*
X55361904Y-60102380D01*
X55742857Y-60102380D01*
X55838095Y-60150000D01*
X55885714Y-60197619D01*
X55933333Y-60292857D01*
X55933333Y-60435714D01*
X55885714Y-60530952D01*
X55838095Y-60578571D01*
X55742857Y-60626190D01*
X55361904Y-60626190D01*
X56885714Y-61102380D02*
X56314285Y-61102380D01*
X56600000Y-61102380D02*
X56600000Y-60102380D01*
X56504761Y-60245238D01*
X56409523Y-60340476D01*
X56314285Y-60388095D01*
X35285714Y-42652380D02*
X34714285Y-42652380D01*
X35000000Y-42652380D02*
X35000000Y-41652380D01*
X34904761Y-41795238D01*
X34809523Y-41890476D01*
X34714285Y-41938095D01*
X63485714Y-42652380D02*
X62914285Y-42652380D01*
X63200000Y-42652380D02*
X63200000Y-41652380D01*
X63104761Y-41795238D01*
X63009523Y-41890476D01*
X62914285Y-41938095D01*
X43933333Y-67102380D02*
X43600000Y-66626190D01*
X43361904Y-67102380D02*
X43361904Y-66102380D01*
X43742857Y-66102380D01*
X43838095Y-66150000D01*
X43885714Y-66197619D01*
X43933333Y-66292857D01*
X43933333Y-66435714D01*
X43885714Y-66530952D01*
X43838095Y-66578571D01*
X43742857Y-66626190D01*
X43361904Y-66626190D01*
X44790476Y-66102380D02*
X44600000Y-66102380D01*
X44504761Y-66150000D01*
X44457142Y-66197619D01*
X44361904Y-66340476D01*
X44314285Y-66530952D01*
X44314285Y-66911904D01*
X44361904Y-67007142D01*
X44409523Y-67054761D01*
X44504761Y-67102380D01*
X44695238Y-67102380D01*
X44790476Y-67054761D01*
X44838095Y-67007142D01*
X44885714Y-66911904D01*
X44885714Y-66673809D01*
X44838095Y-66578571D01*
X44790476Y-66530952D01*
X44695238Y-66483333D01*
X44504761Y-66483333D01*
X44409523Y-66530952D01*
X44361904Y-66578571D01*
X44314285Y-66673809D01*
X55783333Y-70852380D02*
X55450000Y-70376190D01*
X55211904Y-70852380D02*
X55211904Y-69852380D01*
X55592857Y-69852380D01*
X55688095Y-69900000D01*
X55735714Y-69947619D01*
X55783333Y-70042857D01*
X55783333Y-70185714D01*
X55735714Y-70280952D01*
X55688095Y-70328571D01*
X55592857Y-70376190D01*
X55211904Y-70376190D01*
X56116666Y-69852380D02*
X56735714Y-69852380D01*
X56402380Y-70233333D01*
X56545238Y-70233333D01*
X56640476Y-70280952D01*
X56688095Y-70328571D01*
X56735714Y-70423809D01*
X56735714Y-70661904D01*
X56688095Y-70757142D01*
X56640476Y-70804761D01*
X56545238Y-70852380D01*
X56259523Y-70852380D01*
X56164285Y-70804761D01*
X56116666Y-70757142D01*
X49002380Y-61314285D02*
X49002380Y-61885714D01*
X49002380Y-61600000D02*
X48002380Y-61600000D01*
X48145238Y-61695238D01*
X48240476Y-61790476D01*
X48288095Y-61885714D01*
X55883333Y-67052380D02*
X55550000Y-66576190D01*
X55311904Y-67052380D02*
X55311904Y-66052380D01*
X55692857Y-66052380D01*
X55788095Y-66100000D01*
X55835714Y-66147619D01*
X55883333Y-66242857D01*
X55883333Y-66385714D01*
X55835714Y-66480952D01*
X55788095Y-66528571D01*
X55692857Y-66576190D01*
X55311904Y-66576190D01*
X56264285Y-66147619D02*
X56311904Y-66100000D01*
X56407142Y-66052380D01*
X56645238Y-66052380D01*
X56740476Y-66100000D01*
X56788095Y-66147619D01*
X56835714Y-66242857D01*
X56835714Y-66338095D01*
X56788095Y-66480952D01*
X56216666Y-67052380D01*
X56835714Y-67052380D01*
X43983333Y-63357142D02*
X43935714Y-63404761D01*
X43792857Y-63452380D01*
X43697619Y-63452380D01*
X43554761Y-63404761D01*
X43459523Y-63309523D01*
X43411904Y-63214285D01*
X43364285Y-63023809D01*
X43364285Y-62880952D01*
X43411904Y-62690476D01*
X43459523Y-62595238D01*
X43554761Y-62500000D01*
X43697619Y-62452380D01*
X43792857Y-62452380D01*
X43935714Y-62500000D01*
X43983333Y-62547619D01*
X44840476Y-62452380D02*
X44650000Y-62452380D01*
X44554761Y-62500000D01*
X44507142Y-62547619D01*
X44411904Y-62690476D01*
X44364285Y-62880952D01*
X44364285Y-63261904D01*
X44411904Y-63357142D01*
X44459523Y-63404761D01*
X44554761Y-63452380D01*
X44745238Y-63452380D01*
X44840476Y-63404761D01*
X44888095Y-63357142D01*
X44935714Y-63261904D01*
X44935714Y-63023809D01*
X44888095Y-62928571D01*
X44840476Y-62880952D01*
X44745238Y-62833333D01*
X44554761Y-62833333D01*
X44459523Y-62880952D01*
X44411904Y-62928571D01*
X44364285Y-63023809D01*
D13*
X59910000Y-41788748D02*
X59910000Y-43211252D01*
X58090000Y-41788748D02*
X58090000Y-43211252D01*
X38460000Y-64650000D02*
X38460000Y-68350000D01*
X38460000Y-68350000D02*
X32340000Y-68350000D01*
X32340000Y-64650000D02*
X38460000Y-64650000D01*
X32340000Y-68350000D02*
X32340000Y-64650000D01*
X61540000Y-68350000D02*
X61540000Y-64650000D01*
X61540000Y-64650000D02*
X67660000Y-64650000D01*
X67660000Y-68350000D02*
X61540000Y-68350000D01*
X67660000Y-64650000D02*
X67660000Y-68350000D01*
X46450000Y-46550000D02*
X53750000Y-46550000D01*
X53750000Y-46550000D02*
X53750000Y-45400000D01*
X46450000Y-41050000D02*
X53750000Y-41050000D01*
X44330000Y-97270000D02*
X44330000Y-97330000D01*
X41670000Y-96000000D02*
X41670000Y-94670000D01*
X41670000Y-94670000D02*
X43000000Y-94670000D01*
X41670000Y-97270000D02*
X44330000Y-97270000D01*
X41670000Y-97330000D02*
X44330000Y-97330000D01*
X41670000Y-97270000D02*
X41670000Y-97330000D01*
D14*
X34750000Y-94000000D02*
X68750000Y-94000000D01*
X34750000Y-73800000D02*
X68750000Y-73800000D01*
X34750000Y-73800000D02*
X34750000Y-94000000D01*
X68750000Y-73800000D02*
X68750000Y-94000000D01*
D13*
X45710000Y-41788748D02*
X45710000Y-43211252D01*
X43890000Y-41788748D02*
X43890000Y-43211252D01*
X66388748Y-69890000D02*
X67811252Y-69890000D01*
X66388748Y-71710000D02*
X67811252Y-71710000D01*
X55272936Y-59590000D02*
X56727064Y-59590000D01*
X55272936Y-61410000D02*
X56727064Y-61410000D01*
D11*
X34350000Y-76600000D02*
X34350000Y-88600000D01*
X30450000Y-76600000D02*
X30450000Y-88600000D01*
X34350000Y-76600000D02*
X30450000Y-76600000D01*
X34350000Y-88600000D02*
X30450000Y-88600000D01*
D13*
X32350000Y-41050000D02*
X39650000Y-41050000D01*
X39650000Y-46550000D02*
X39650000Y-45400000D01*
X32350000Y-46550000D02*
X39650000Y-46550000D01*
X38280000Y-97170000D02*
X38280000Y-97230000D01*
X35620000Y-97230000D02*
X38280000Y-97230000D01*
X35620000Y-95900000D02*
X35620000Y-94570000D01*
X35620000Y-97170000D02*
X35620000Y-97230000D01*
X35620000Y-97170000D02*
X38280000Y-97170000D01*
X35620000Y-94570000D02*
X36950000Y-94570000D01*
X60550000Y-46550000D02*
X67850000Y-46550000D01*
X67850000Y-46550000D02*
X67850000Y-45400000D01*
X60550000Y-41050000D02*
X67850000Y-41050000D01*
X43372936Y-65590000D02*
X44827064Y-65590000D01*
X43372936Y-67410000D02*
X44827064Y-67410000D01*
X33670000Y-97160000D02*
X33670000Y-90620000D01*
X30930000Y-90620000D02*
X31260000Y-90620000D01*
X33340000Y-97160000D02*
X33670000Y-97160000D01*
X31260000Y-97160000D02*
X30930000Y-97160000D01*
X33670000Y-90620000D02*
X33340000Y-90620000D01*
X30930000Y-97160000D02*
X30930000Y-90620000D01*
X46940000Y-104850000D02*
X46940000Y-101150000D01*
X46940000Y-101150000D02*
X53060000Y-101150000D01*
X53060000Y-104850000D02*
X46940000Y-104850000D01*
X53060000Y-101150000D02*
X53060000Y-104850000D01*
X30290000Y-41788748D02*
X30290000Y-43211252D01*
X32110000Y-41788748D02*
X32110000Y-43211252D01*
X56727064Y-69290000D02*
X55272936Y-69290000D01*
X56727064Y-71110000D02*
X55272936Y-71110000D01*
X47400000Y-64400000D02*
X47400000Y-57100000D01*
X52900000Y-64400000D02*
X52900000Y-57100000D01*
X52900000Y-57100000D02*
X51750000Y-57100000D01*
X55272936Y-67410000D02*
X56727064Y-67410000D01*
X55272936Y-65590000D02*
X56727064Y-65590000D01*
X44811252Y-63810000D02*
X43388748Y-63810000D01*
X44811252Y-61990000D02*
X43388748Y-61990000D01*
X67660000Y-58750000D02*
X67660000Y-62450000D01*
X67660000Y-62450000D02*
X61540000Y-62450000D01*
X61540000Y-58750000D02*
X67660000Y-58750000D01*
X61540000Y-62450000D02*
X61540000Y-58750000D01*
X38460000Y-62500000D02*
X32340000Y-62500000D01*
X32340000Y-58800000D02*
X38460000Y-58800000D01*
X32340000Y-62500000D02*
X32340000Y-58800000D01*
X38460000Y-58800000D02*
X38460000Y-62500000D01*
%LPC*%
D15*
X59000000Y-41025000D03*
X59000000Y-43975000D03*
D16*
X39300000Y-66500000D03*
X31500000Y-66500000D03*
X68500000Y-66500000D03*
X60700000Y-66500000D03*
D17*
X47650000Y-42200000D03*
X47650000Y-45400000D03*
X52550000Y-45400000D03*
X52550000Y-42200000D03*
D18*
X43000000Y-96000000D03*
X37050000Y-81400000D03*
X37050000Y-86400000D03*
X66450000Y-76200000D03*
X66450000Y-91800000D03*
D15*
X44800000Y-41025000D03*
X44800000Y-43975000D03*
D19*
X65625000Y-70800000D03*
X68575000Y-70800000D03*
D20*
X54537500Y-60500000D03*
X57462500Y-60500000D03*
D21*
X33100000Y-78850000D03*
X31700000Y-86350000D03*
D17*
X33550000Y-42200000D03*
X33550000Y-45400000D03*
X38450000Y-45400000D03*
X38450000Y-42200000D03*
D18*
X36950000Y-95900000D03*
D17*
X61750000Y-42200000D03*
X61750000Y-45400000D03*
X66650000Y-45400000D03*
X66650000Y-42200000D03*
D20*
X42637500Y-66500000D03*
X45562500Y-66500000D03*
D22*
X32300000Y-97700000D03*
D23*
X32300000Y-90080000D03*
D16*
X53900000Y-103000000D03*
D24*
X55000000Y-103000000D03*
D16*
X46100000Y-103000000D03*
D24*
X45000000Y-103000000D03*
D15*
X31200000Y-41025000D03*
X31200000Y-43975000D03*
D25*
X57462500Y-70200000D03*
X54537500Y-70200000D03*
D26*
X48550000Y-63200000D03*
X51750000Y-63200000D03*
X51750000Y-58300000D03*
X48550000Y-58300000D03*
D20*
X54537500Y-66500000D03*
X57462500Y-66500000D03*
D27*
X45575000Y-62900000D03*
X42625000Y-62900000D03*
D16*
X68500000Y-60600000D03*
X60700000Y-60600000D03*
X31500000Y-60650000D03*
X39300000Y-60650000D03*
D28*
X31700000Y-48900000D03*
D29*
X34240000Y-48900000D03*
X36780000Y-48900000D03*
X39320000Y-48900000D03*
X41860000Y-48900000D03*
X44400000Y-48900000D03*
D28*
X47325000Y-48900000D03*
D29*
X49865000Y-48900000D03*
X52405000Y-48900000D03*
X54945000Y-48900000D03*
X57485000Y-48900000D03*
D28*
X60400000Y-48900000D03*
D29*
X62940000Y-48900000D03*
X65480000Y-48900000D03*
X68020000Y-48900000D03*
M02*
