G04 #@! TF.GenerationSoftware,KiCad,Pcbnew,5.99.0-unknown-4594d88417~130~ubuntu20.04.1*
G04 #@! TF.CreationDate,2021-07-04T17:01:17+02:00*
G04 #@! TF.ProjectId,SLS,534c532e-6b69-4636-9164-5f7063625858,rev?*
G04 #@! TF.SameCoordinates,Original*
G04 #@! TF.FileFunction,Legend,Bot*
G04 #@! TF.FilePolarity,Positive*
%FSLAX46Y46*%
G04 Gerber Fmt 4.6, Leading zero omitted, Abs format (unit mm)*
G04 Created by KiCad (PCBNEW 5.99.0-unknown-4594d88417~130~ubuntu20.04.1) date 2021-07-04 17:01:17*
%MOMM*%
%LPD*%
G01*
G04 APERTURE LIST*
G04 Aperture macros list*
%AMRoundRect*
0 Rectangle with rounded corners*
0 $1 Rounding radius*
0 $2 $3 $4 $5 $6 $7 $8 $9 X,Y pos of 4 corners*
0 Add a 4 corners polygon primitive as box body*
4,1,4,$2,$3,$4,$5,$6,$7,$8,$9,$2,$3,0*
0 Add four circle primitives for the rounded corners*
1,1,$1+$1,$2,$3*
1,1,$1+$1,$4,$5*
1,1,$1+$1,$6,$7*
1,1,$1+$1,$8,$9*
0 Add four rect primitives between the rounded corners*
20,1,$1+$1,$2,$3,$4,$5,0*
20,1,$1+$1,$4,$5,$6,$7,0*
20,1,$1+$1,$6,$7,$8,$9,0*
20,1,$1+$1,$8,$9,$2,$3,0*%
G04 Aperture macros list end*
G04 #@! TA.AperFunction,Profile*
%ADD10C,0.050000*%
G04 #@! TD*
%ADD11C,0.150000*%
%ADD12C,0.300000*%
%ADD13C,0.120000*%
%ADD14C,0.100000*%
%ADD15C,3.000000*%
%ADD16C,1.800000*%
%ADD17C,1.600000*%
%ADD18O,1.600000X1.600000*%
%ADD19C,1.524000*%
%ADD20R,1.700000X1.700000*%
%ADD21O,1.700000X1.700000*%
%ADD22RoundRect,0.250000X-0.787500X-1.025000X0.787500X-1.025000X0.787500X1.025000X-0.787500X1.025000X0*%
%ADD23R,0.900000X2.000000*%
%ADD24R,2.000000X0.900000*%
%ADD25R,5.000000X5.000000*%
%ADD26R,2.000000X1.500000*%
%ADD27R,2.000000X3.800000*%
%ADD28R,0.500000X2.000000*%
%ADD29R,2.000000X0.500000*%
G04 APERTURE END LIST*
D10*
X47000000Y-76000000D02*
X33000000Y-76000000D01*
X30000000Y-105000000D02*
X30000000Y-40000000D01*
X48000000Y-101000000D02*
X34000000Y-101000000D01*
X70000000Y-105000000D02*
X60000000Y-110000000D01*
X40000000Y-110000000D02*
X30000000Y-105000000D01*
X48000000Y-75000000D02*
X48000000Y-101000000D01*
X33000000Y-76000000D02*
X33000000Y-75000000D01*
X30000000Y-40000000D02*
X70000000Y-40000000D01*
X33000000Y-75000000D02*
X48000000Y-75000000D01*
X34000000Y-101000000D02*
X34000000Y-100000000D01*
X70000000Y-40000000D02*
X70000000Y-105000000D01*
X60000000Y-110000000D02*
X40000000Y-110000000D01*
X34000000Y-100000000D02*
X47000000Y-100000000D01*
X47000000Y-100000000D02*
X47000000Y-76000000D01*
D11*
X53083333Y-50666666D02*
X52683333Y-50666666D01*
X52883333Y-51366666D02*
X52883333Y-50666666D01*
X52516666Y-50666666D02*
X52050000Y-51366666D01*
X52050000Y-50666666D02*
X52516666Y-51366666D01*
X41116666Y-51433333D02*
X41516666Y-51433333D01*
X41316666Y-50733333D02*
X41316666Y-51433333D01*
X41750000Y-50733333D02*
X41750000Y-51433333D01*
X41983333Y-50933333D01*
X42216666Y-51433333D01*
X42216666Y-50733333D01*
X42516666Y-50766666D02*
X42616666Y-50733333D01*
X42783333Y-50733333D01*
X42850000Y-50766666D01*
X42883333Y-50800000D01*
X42916666Y-50866666D01*
X42916666Y-50933333D01*
X42883333Y-51000000D01*
X42850000Y-51033333D01*
X42783333Y-51066666D01*
X42650000Y-51100000D01*
X42583333Y-51133333D01*
X42550000Y-51166666D01*
X42516666Y-51233333D01*
X42516666Y-51300000D01*
X42550000Y-51366666D01*
X42583333Y-51400000D01*
X42650000Y-51433333D01*
X42816666Y-51433333D01*
X42916666Y-51400000D01*
X50900000Y-51366666D02*
X50900000Y-50666666D01*
X50733333Y-50666666D01*
X50633333Y-50700000D01*
X50566666Y-50766666D01*
X50533333Y-50833333D01*
X50500000Y-50966666D01*
X50500000Y-51066666D01*
X50533333Y-51200000D01*
X50566666Y-51266666D01*
X50633333Y-51333333D01*
X50733333Y-51366666D01*
X50900000Y-51366666D01*
X50300000Y-50666666D02*
X49900000Y-50666666D01*
X50100000Y-51366666D02*
X50100000Y-50666666D01*
X49266666Y-51366666D02*
X49500000Y-51033333D01*
X49666666Y-51366666D02*
X49666666Y-50666666D01*
X49400000Y-50666666D01*
X49333333Y-50700000D01*
X49300000Y-50733333D01*
X49266666Y-50800000D01*
X49266666Y-50900000D01*
X49300000Y-50966666D01*
X49333333Y-51000000D01*
X49400000Y-51033333D01*
X49666666Y-51033333D01*
X66000000Y-51366666D02*
X66000000Y-50666666D01*
X65833333Y-50666666D01*
X65733333Y-50700000D01*
X65666666Y-50766666D01*
X65633333Y-50833333D01*
X65600000Y-50966666D01*
X65600000Y-51066666D01*
X65633333Y-51200000D01*
X65666666Y-51266666D01*
X65733333Y-51333333D01*
X65833333Y-51366666D01*
X66000000Y-51366666D01*
X65300000Y-51366666D02*
X65300000Y-50666666D01*
X61033333Y-50700000D02*
X61100000Y-50666666D01*
X61200000Y-50666666D01*
X61300000Y-50700000D01*
X61366666Y-50766666D01*
X61400000Y-50833333D01*
X61433333Y-50966666D01*
X61433333Y-51066666D01*
X61400000Y-51200000D01*
X61366666Y-51266666D01*
X61300000Y-51333333D01*
X61200000Y-51366666D01*
X61133333Y-51366666D01*
X61033333Y-51333333D01*
X61000000Y-51300000D01*
X61000000Y-51066666D01*
X61133333Y-51066666D01*
X60700000Y-51366666D02*
X60700000Y-50666666D01*
X60300000Y-51366666D01*
X60300000Y-50666666D01*
X59966666Y-51366666D02*
X59966666Y-50666666D01*
X59800000Y-50666666D01*
X59700000Y-50700000D01*
X59633333Y-50766666D01*
X59600000Y-50833333D01*
X59566666Y-50966666D01*
X59566666Y-51066666D01*
X59600000Y-51200000D01*
X59633333Y-51266666D01*
X59700000Y-51333333D01*
X59800000Y-51366666D01*
X59966666Y-51366666D01*
X62316666Y-82916666D02*
X62316666Y-82583333D01*
X61616666Y-82583333D01*
X62316666Y-83150000D02*
X61616666Y-83150000D01*
X62116666Y-83383333D01*
X61616666Y-83616666D01*
X62316666Y-83616666D01*
X62316666Y-84316666D02*
X62316666Y-83916666D01*
X62316666Y-84116666D02*
X61616666Y-84116666D01*
X61716666Y-84050000D01*
X61783333Y-83983333D01*
X61816666Y-83916666D01*
X62316666Y-84983333D02*
X62316666Y-84583333D01*
X62316666Y-84783333D02*
X61616666Y-84783333D01*
X61716666Y-84716666D01*
X61783333Y-84650000D01*
X61816666Y-84583333D01*
X62316666Y-85650000D02*
X62316666Y-85250000D01*
X62316666Y-85450000D02*
X61616666Y-85450000D01*
X61716666Y-85383333D01*
X61783333Y-85316666D01*
X61816666Y-85250000D01*
X61616666Y-85883333D02*
X61616666Y-86350000D01*
X62316666Y-86050000D01*
X62050000Y-86616666D02*
X62050000Y-87150000D01*
X61616666Y-87416666D02*
X61616666Y-87850000D01*
X61883333Y-87616666D01*
X61883333Y-87716666D01*
X61916666Y-87783333D01*
X61950000Y-87816666D01*
X62016666Y-87850000D01*
X62183333Y-87850000D01*
X62250000Y-87816666D01*
X62283333Y-87783333D01*
X62316666Y-87716666D01*
X62316666Y-87516666D01*
X62283333Y-87450000D01*
X62250000Y-87416666D01*
X62250000Y-88150000D02*
X62283333Y-88183333D01*
X62316666Y-88150000D01*
X62283333Y-88116666D01*
X62250000Y-88150000D01*
X62316666Y-88150000D01*
X61616666Y-88416666D02*
X61616666Y-88850000D01*
X61883333Y-88616666D01*
X61883333Y-88716666D01*
X61916666Y-88783333D01*
X61950000Y-88816666D01*
X62016666Y-88850000D01*
X62183333Y-88850000D01*
X62250000Y-88816666D01*
X62283333Y-88783333D01*
X62316666Y-88716666D01*
X62316666Y-88516666D01*
X62283333Y-88450000D01*
X62250000Y-88416666D01*
X35066666Y-50666666D02*
X34666666Y-50666666D01*
X34866666Y-51366666D02*
X34866666Y-50666666D01*
X34433333Y-51366666D02*
X34433333Y-50666666D01*
X34266666Y-50666666D01*
X34166666Y-50700000D01*
X34100000Y-50766666D01*
X34066666Y-50833333D01*
X34033333Y-50966666D01*
X34033333Y-51066666D01*
X34066666Y-51200000D01*
X34100000Y-51266666D01*
X34166666Y-51333333D01*
X34266666Y-51366666D01*
X34433333Y-51366666D01*
X33733333Y-51366666D02*
X33733333Y-50666666D01*
X58183333Y-50700000D02*
X58250000Y-50666666D01*
X58350000Y-50666666D01*
X58450000Y-50700000D01*
X58516666Y-50766666D01*
X58550000Y-50833333D01*
X58583333Y-50966666D01*
X58583333Y-51066666D01*
X58550000Y-51200000D01*
X58516666Y-51266666D01*
X58450000Y-51333333D01*
X58350000Y-51366666D01*
X58283333Y-51366666D01*
X58183333Y-51333333D01*
X58150000Y-51300000D01*
X58150000Y-51066666D01*
X58283333Y-51066666D01*
X57850000Y-51366666D02*
X57850000Y-50666666D01*
X57450000Y-51366666D01*
X57450000Y-50666666D01*
X57116666Y-51366666D02*
X57116666Y-50666666D01*
X56950000Y-50666666D01*
X56850000Y-50700000D01*
X56783333Y-50766666D01*
X56750000Y-50833333D01*
X56716666Y-50966666D01*
X56716666Y-51066666D01*
X56750000Y-51200000D01*
X56783333Y-51266666D01*
X56850000Y-51333333D01*
X56950000Y-51366666D01*
X57116666Y-51366666D01*
X37916666Y-50666666D02*
X37516666Y-50666666D01*
X37716666Y-51366666D02*
X37716666Y-50666666D01*
X37283333Y-51366666D02*
X37283333Y-50666666D01*
X37116666Y-50666666D01*
X37016666Y-50700000D01*
X36950000Y-50766666D01*
X36916666Y-50833333D01*
X36883333Y-50966666D01*
X36883333Y-51066666D01*
X36916666Y-51200000D01*
X36950000Y-51266666D01*
X37016666Y-51333333D01*
X37116666Y-51366666D01*
X37283333Y-51366666D01*
X36450000Y-50666666D02*
X36316666Y-50666666D01*
X36250000Y-50700000D01*
X36183333Y-50766666D01*
X36150000Y-50900000D01*
X36150000Y-51133333D01*
X36183333Y-51266666D01*
X36250000Y-51333333D01*
X36316666Y-51366666D01*
X36450000Y-51366666D01*
X36516666Y-51333333D01*
X36583333Y-51266666D01*
X36616666Y-51133333D01*
X36616666Y-50900000D01*
X36583333Y-50766666D01*
X36516666Y-50700000D01*
X36450000Y-50666666D01*
X40450000Y-50666666D02*
X40050000Y-50666666D01*
X40250000Y-51366666D02*
X40250000Y-50666666D01*
X39416666Y-51300000D02*
X39450000Y-51333333D01*
X39550000Y-51366666D01*
X39616666Y-51366666D01*
X39716666Y-51333333D01*
X39783333Y-51266666D01*
X39816666Y-51200000D01*
X39850000Y-51066666D01*
X39850000Y-50966666D01*
X39816666Y-50833333D01*
X39783333Y-50766666D01*
X39716666Y-50700000D01*
X39616666Y-50666666D01*
X39550000Y-50666666D01*
X39450000Y-50700000D01*
X39416666Y-50733333D01*
X39116666Y-51366666D02*
X39116666Y-50666666D01*
X38716666Y-51366666D02*
X39016666Y-50966666D01*
X38716666Y-50666666D02*
X39116666Y-51066666D01*
X63600000Y-51366666D02*
X63600000Y-50666666D01*
X63433333Y-50666666D01*
X63333333Y-50700000D01*
X63266666Y-50766666D01*
X63233333Y-50833333D01*
X63200000Y-50966666D01*
X63200000Y-51066666D01*
X63233333Y-51200000D01*
X63266666Y-51266666D01*
X63333333Y-51333333D01*
X63433333Y-51366666D01*
X63600000Y-51366666D01*
X62766666Y-50666666D02*
X62633333Y-50666666D01*
X62566666Y-50700000D01*
X62500000Y-50766666D01*
X62466666Y-50900000D01*
X62466666Y-51133333D01*
X62500000Y-51266666D01*
X62566666Y-51333333D01*
X62633333Y-51366666D01*
X62766666Y-51366666D01*
X62833333Y-51333333D01*
X62900000Y-51266666D01*
X62933333Y-51133333D01*
X62933333Y-50900000D01*
X62900000Y-50766666D01*
X62833333Y-50700000D01*
X62766666Y-50666666D01*
X68333333Y-50666666D02*
X68666666Y-50666666D01*
X68700000Y-51000000D01*
X68666666Y-50966666D01*
X68600000Y-50933333D01*
X68433333Y-50933333D01*
X68366666Y-50966666D01*
X68333333Y-51000000D01*
X68300000Y-51066666D01*
X68300000Y-51233333D01*
X68333333Y-51300000D01*
X68366666Y-51333333D01*
X68433333Y-51366666D01*
X68600000Y-51366666D01*
X68666666Y-51333333D01*
X68700000Y-51300000D01*
X68100000Y-50666666D02*
X67866666Y-51366666D01*
X67633333Y-50666666D01*
X55216666Y-51366666D02*
X55450000Y-51033333D01*
X55616666Y-51366666D02*
X55616666Y-50666666D01*
X55350000Y-50666666D01*
X55283333Y-50700000D01*
X55250000Y-50733333D01*
X55216666Y-50800000D01*
X55216666Y-50900000D01*
X55250000Y-50966666D01*
X55283333Y-51000000D01*
X55350000Y-51033333D01*
X55616666Y-51033333D01*
X54983333Y-50666666D02*
X54516666Y-51366666D01*
X54516666Y-50666666D02*
X54983333Y-51366666D01*
X48483333Y-50666666D02*
X48050000Y-50666666D01*
X48283333Y-50933333D01*
X48183333Y-50933333D01*
X48116666Y-50966666D01*
X48083333Y-51000000D01*
X48050000Y-51066666D01*
X48050000Y-51233333D01*
X48083333Y-51300000D01*
X48116666Y-51333333D01*
X48183333Y-51366666D01*
X48383333Y-51366666D01*
X48450000Y-51333333D01*
X48483333Y-51300000D01*
X47750000Y-51300000D02*
X47716666Y-51333333D01*
X47750000Y-51366666D01*
X47783333Y-51333333D01*
X47750000Y-51300000D01*
X47750000Y-51366666D01*
X47483333Y-50666666D02*
X47050000Y-50666666D01*
X47283333Y-50933333D01*
X47183333Y-50933333D01*
X47116666Y-50966666D01*
X47083333Y-51000000D01*
X47050000Y-51066666D01*
X47050000Y-51233333D01*
X47083333Y-51300000D01*
X47116666Y-51333333D01*
X47183333Y-51366666D01*
X47383333Y-51366666D01*
X47450000Y-51333333D01*
X47483333Y-51300000D01*
X46850000Y-50666666D02*
X46616666Y-51366666D01*
X46383333Y-50666666D01*
X45633333Y-50666666D02*
X45200000Y-50666666D01*
X45433333Y-50933333D01*
X45333333Y-50933333D01*
X45266666Y-50966666D01*
X45233333Y-51000000D01*
X45200000Y-51066666D01*
X45200000Y-51233333D01*
X45233333Y-51300000D01*
X45266666Y-51333333D01*
X45333333Y-51366666D01*
X45533333Y-51366666D01*
X45600000Y-51333333D01*
X45633333Y-51300000D01*
X44900000Y-51300000D02*
X44866666Y-51333333D01*
X44900000Y-51366666D01*
X44933333Y-51333333D01*
X44900000Y-51300000D01*
X44900000Y-51366666D01*
X44633333Y-50666666D02*
X44200000Y-50666666D01*
X44433333Y-50933333D01*
X44333333Y-50933333D01*
X44266666Y-50966666D01*
X44233333Y-51000000D01*
X44200000Y-51066666D01*
X44200000Y-51233333D01*
X44233333Y-51300000D01*
X44266666Y-51333333D01*
X44333333Y-51366666D01*
X44533333Y-51366666D01*
X44600000Y-51333333D01*
X44633333Y-51300000D01*
X44000000Y-50666666D02*
X43766666Y-51366666D01*
X43533333Y-50666666D01*
X32183333Y-50700000D02*
X32250000Y-50666666D01*
X32350000Y-50666666D01*
X32450000Y-50700000D01*
X32516666Y-50766666D01*
X32550000Y-50833333D01*
X32583333Y-50966666D01*
X32583333Y-51066666D01*
X32550000Y-51200000D01*
X32516666Y-51266666D01*
X32450000Y-51333333D01*
X32350000Y-51366666D01*
X32283333Y-51366666D01*
X32183333Y-51333333D01*
X32150000Y-51300000D01*
X32150000Y-51066666D01*
X32283333Y-51066666D01*
X31850000Y-51366666D02*
X31850000Y-50666666D01*
X31450000Y-51366666D01*
X31450000Y-50666666D01*
X31116666Y-51366666D02*
X31116666Y-50666666D01*
X30950000Y-50666666D01*
X30850000Y-50700000D01*
X30783333Y-50766666D01*
X30750000Y-50833333D01*
X30716666Y-50966666D01*
X30716666Y-51066666D01*
X30750000Y-51200000D01*
X30783333Y-51266666D01*
X30850000Y-51333333D01*
X30950000Y-51366666D01*
X31116666Y-51366666D01*
D12*
X52071428Y-77857142D02*
X50928571Y-77857142D01*
X51500000Y-78428571D02*
X51500000Y-77285714D01*
D11*
X57766666Y-78457142D02*
X57814285Y-78504761D01*
X57957142Y-78552380D01*
X58052380Y-78552380D01*
X58195238Y-78504761D01*
X58290476Y-78409523D01*
X58338095Y-78314285D01*
X58385714Y-78123809D01*
X58385714Y-77980952D01*
X58338095Y-77790476D01*
X58290476Y-77695238D01*
X58195238Y-77600000D01*
X58052380Y-77552380D01*
X57957142Y-77552380D01*
X57814285Y-77600000D01*
X57766666Y-77647619D01*
X56909523Y-77885714D02*
X56909523Y-78552380D01*
X57147619Y-77504761D02*
X57385714Y-78219047D01*
X56766666Y-78219047D01*
D13*
X32970000Y-50230000D02*
X45730000Y-50230000D01*
X30370000Y-47570000D02*
X30370000Y-48900000D01*
X32970000Y-47570000D02*
X32970000Y-50230000D01*
X45730000Y-47570000D02*
X45730000Y-50230000D01*
X31700000Y-47570000D02*
X30370000Y-47570000D01*
X32970000Y-47570000D02*
X45730000Y-47570000D01*
X52990000Y-80260000D02*
X52990000Y-75740000D01*
X52990000Y-75740000D02*
X61050000Y-75740000D01*
X61050000Y-80260000D02*
X52990000Y-80260000D01*
D14*
X50385000Y-71055000D02*
X50385000Y-68405000D01*
X74385000Y-52955000D02*
X76005000Y-52955000D01*
X51405000Y-52905000D02*
X50365000Y-52905000D01*
X76005000Y-71025000D02*
X76005000Y-69395000D01*
X76005000Y-52955000D02*
X76005000Y-54595000D01*
X50365000Y-52905000D02*
X50365000Y-55605000D01*
X51435000Y-71055000D02*
X50385000Y-71055000D01*
X74375000Y-71025000D02*
X76005000Y-71025000D01*
D13*
X58815000Y-47570000D02*
X58815000Y-50230000D01*
X45995000Y-47570000D02*
X45995000Y-48900000D01*
X47325000Y-47570000D02*
X45995000Y-47570000D01*
X48595000Y-47570000D02*
X48595000Y-50230000D01*
X48595000Y-47570000D02*
X58815000Y-47570000D01*
X48595000Y-50230000D02*
X58815000Y-50230000D01*
X59590000Y-89110000D02*
X59590000Y-87850000D01*
X63350000Y-89110000D02*
X59590000Y-89110000D01*
X65600000Y-82290000D02*
X59590000Y-82290000D01*
X59590000Y-82290000D02*
X59590000Y-83550000D01*
X19000000Y-53350000D02*
X47700000Y-53350000D01*
X47700000Y-53350000D02*
X47700000Y-70850000D01*
X47700000Y-70850000D02*
X19000000Y-70850000D01*
X19000000Y-70850000D02*
X19000000Y-53350000D01*
X60400000Y-47570000D02*
X59070000Y-47570000D01*
X61670000Y-47570000D02*
X61670000Y-50230000D01*
X61670000Y-47570000D02*
X69350000Y-47570000D01*
X59070000Y-47570000D02*
X59070000Y-48900000D01*
X61670000Y-50230000D02*
X69350000Y-50230000D01*
X69350000Y-47570000D02*
X69350000Y-50230000D01*
%LPC*%
D15*
X43000000Y-96000000D03*
X37050000Y-81400000D03*
X37050000Y-86400000D03*
X66450000Y-76200000D03*
X66450000Y-91800000D03*
D16*
X33100000Y-78850000D03*
X31700000Y-86350000D03*
D15*
X36950000Y-95900000D03*
D17*
X32300000Y-97700000D03*
D18*
X32300000Y-90080000D03*
D19*
X55000000Y-103000000D03*
X45000000Y-103000000D03*
D20*
X31700000Y-48900000D03*
D21*
X34240000Y-48900000D03*
X36780000Y-48900000D03*
X39320000Y-48900000D03*
X41860000Y-48900000D03*
X44400000Y-48900000D03*
D22*
X54287500Y-78000000D03*
X60512500Y-78000000D03*
D23*
X68470000Y-70485000D03*
X67200000Y-70485000D03*
X65930000Y-70485000D03*
X59580000Y-70485000D03*
X58310000Y-70485000D03*
X54500000Y-70485000D03*
X53230000Y-70485000D03*
D24*
X50960000Y-67700000D03*
X50960000Y-57540000D03*
X50960000Y-56270000D03*
D23*
X51960000Y-53485000D03*
X53230000Y-53485000D03*
X57040000Y-53485000D03*
X58310000Y-53485000D03*
X63390000Y-53485000D03*
X64660000Y-53485000D03*
X65930000Y-53485000D03*
X67200000Y-53485000D03*
X68470000Y-53485000D03*
D25*
X61970000Y-62985000D03*
D20*
X47325000Y-48900000D03*
D21*
X49865000Y-48900000D03*
X52405000Y-48900000D03*
X54945000Y-48900000D03*
X57485000Y-48900000D03*
D26*
X64650000Y-83400000D03*
X64650000Y-85700000D03*
D27*
X58350000Y-85700000D03*
D26*
X64650000Y-88000000D03*
D28*
X30730000Y-53110000D03*
X38350000Y-53110000D03*
X39620000Y-53110000D03*
X40890000Y-53110000D03*
X42160000Y-53110000D03*
X43430000Y-53110000D03*
X44700000Y-53110000D03*
D29*
X47875000Y-56285000D03*
X47875000Y-57555000D03*
X47875000Y-58825000D03*
X47875000Y-60095000D03*
X47875000Y-61365000D03*
X47875000Y-62635000D03*
X47875000Y-63905000D03*
X47875000Y-65175000D03*
X47875000Y-66445000D03*
X47875000Y-67715000D03*
D28*
X44700000Y-71160000D03*
X43430000Y-71160000D03*
X30730000Y-71160000D03*
D20*
X60400000Y-48900000D03*
D21*
X62940000Y-48900000D03*
X65480000Y-48900000D03*
X68020000Y-48900000D03*
M02*
