G04 #@! TF.GenerationSoftware,KiCad,Pcbnew,5.99.0-unknown-4594d88417~130~ubuntu20.04.1*
G04 #@! TF.CreationDate,2021-07-04T17:01:16+02:00*
G04 #@! TF.ProjectId,SLS,534c532e-6b69-4636-9164-5f7063625858,rev?*
G04 #@! TF.SameCoordinates,Original*
G04 #@! TF.FileFunction,Paste,Bot*
G04 #@! TF.FilePolarity,Positive*
%FSLAX46Y46*%
G04 Gerber Fmt 4.6, Leading zero omitted, Abs format (unit mm)*
G04 Created by KiCad (PCBNEW 5.99.0-unknown-4594d88417~130~ubuntu20.04.1) date 2021-07-04 17:01:16*
%MOMM*%
%LPD*%
G01*
G04 APERTURE LIST*
G04 Aperture macros list*
%AMRoundRect*
0 Rectangle with rounded corners*
0 $1 Rounding radius*
0 $2 $3 $4 $5 $6 $7 $8 $9 X,Y pos of 4 corners*
0 Add a 4 corners polygon primitive as box body*
4,1,4,$2,$3,$4,$5,$6,$7,$8,$9,$2,$3,0*
0 Add four circle primitives for the rounded corners*
1,1,$1+$1,$2,$3*
1,1,$1+$1,$4,$5*
1,1,$1+$1,$6,$7*
1,1,$1+$1,$8,$9*
0 Add four rect primitives between the rounded corners*
20,1,$1+$1,$2,$3,$4,$5,0*
20,1,$1+$1,$4,$5,$6,$7,0*
20,1,$1+$1,$6,$7,$8,$9,0*
20,1,$1+$1,$8,$9,$2,$3,0*%
G04 Aperture macros list end*
G04 #@! TA.AperFunction,Profile*
%ADD10C,0.050000*%
G04 #@! TD*
%ADD11RoundRect,0.250000X-0.787500X-1.025000X0.787500X-1.025000X0.787500X1.025000X-0.787500X1.025000X0*%
%ADD12R,0.900000X2.000000*%
%ADD13R,2.000000X0.900000*%
%ADD14R,5.000000X5.000000*%
%ADD15R,2.000000X1.500000*%
%ADD16R,2.000000X3.800000*%
%ADD17R,0.500000X2.000000*%
%ADD18R,2.000000X0.500000*%
G04 APERTURE END LIST*
D10*
X47000000Y-76000000D02*
X33000000Y-76000000D01*
X30000000Y-105000000D02*
X30000000Y-40000000D01*
X48000000Y-101000000D02*
X34000000Y-101000000D01*
X70000000Y-105000000D02*
X60000000Y-110000000D01*
X40000000Y-110000000D02*
X30000000Y-105000000D01*
X48000000Y-75000000D02*
X48000000Y-101000000D01*
X33000000Y-76000000D02*
X33000000Y-75000000D01*
X30000000Y-40000000D02*
X70000000Y-40000000D01*
X33000000Y-75000000D02*
X48000000Y-75000000D01*
X34000000Y-101000000D02*
X34000000Y-100000000D01*
X70000000Y-40000000D02*
X70000000Y-105000000D01*
X60000000Y-110000000D02*
X40000000Y-110000000D01*
X34000000Y-100000000D02*
X47000000Y-100000000D01*
X47000000Y-100000000D02*
X47000000Y-76000000D01*
D11*
X54287500Y-78000000D03*
X60512500Y-78000000D03*
D12*
X68470000Y-70485000D03*
X67200000Y-70485000D03*
X65930000Y-70485000D03*
X59580000Y-70485000D03*
X58310000Y-70485000D03*
X54500000Y-70485000D03*
X53230000Y-70485000D03*
D13*
X50960000Y-67700000D03*
X50960000Y-57540000D03*
X50960000Y-56270000D03*
D12*
X51960000Y-53485000D03*
X53230000Y-53485000D03*
X57040000Y-53485000D03*
X58310000Y-53485000D03*
X63390000Y-53485000D03*
X64660000Y-53485000D03*
X65930000Y-53485000D03*
X67200000Y-53485000D03*
X68470000Y-53485000D03*
D14*
X61970000Y-62985000D03*
D15*
X64650000Y-83400000D03*
X64650000Y-85700000D03*
D16*
X58350000Y-85700000D03*
D15*
X64650000Y-88000000D03*
D17*
X30730000Y-53110000D03*
X38350000Y-53110000D03*
X39620000Y-53110000D03*
X40890000Y-53110000D03*
X42160000Y-53110000D03*
X43430000Y-53110000D03*
X44700000Y-53110000D03*
D18*
X47875000Y-56285000D03*
X47875000Y-57555000D03*
X47875000Y-58825000D03*
X47875000Y-60095000D03*
X47875000Y-61365000D03*
X47875000Y-62635000D03*
X47875000Y-63905000D03*
X47875000Y-65175000D03*
X47875000Y-66445000D03*
X47875000Y-67715000D03*
D17*
X44700000Y-71160000D03*
X43430000Y-71160000D03*
X30730000Y-71160000D03*
M02*
